name D:\school\WTK\thesis\model\3dpredictsim\Results\MidTarsalJoint\Fal_s1_bCst_PF_none_ls150_MT_k1000_MTP_T17_ig23_v27.mot
datacolumns 128
datarows 4
range 0.86247198 0.87972142
endheader
time	pelvis_tilt	pelvis_list	pelvis_rotation	pelvis_tx	pelvis_ty	pelvis_tz	hip_flexion_l	hip_adduction_l	hip_rotation_l	hip_flexion_r	hip_adduction_r	hip_rotation_r	knee_angle_l	knee_angle_r	ankle_angle_l	ankle_angle_r	subtalar_angle_l	subtalar_angle_r	mtj_angle_l	mtj_angle_r	mtp_angle_l	mtp_angle_r	lumbar_extension	lumbar_bending	lumbar_rotation	arm_flex_l	arm_add_l	arm_rot_l	arm_flex_r	arm_add_r	arm_rot_r	elbow_flex_l	elbow_flex_r	pro_sup_l	pro_sup_r	glut_med1_l/activation	glut_med2_l/activation	glut_med3_l/activation	glut_min1_l/activation	glut_min2_l/activation	glut_min3_l/activation	semimem_l/activation	semiten_l/activation	bifemlh_l/activation	bifemsh_l/activation	sar_l/activation	add_long_l/activation	add_brev_l/activation	add_mag1_l/activation	add_mag2_l/activation	add_mag3_l/activation	tfl_l/activation	pect_l/activation	grac_l/activation	glut_max1_l/activation	glut_max2_l/activation	glut_max3_l/activation	iliacus_l/activation	psoas_l/activation	quad_fem_l/activation	gem_l/activation	peri_l/activation	rect_fem_l/activation	vas_med_l/activation	vas_int_l/activation	vas_lat_l/activation	med_gas_l/activation	lat_gas_l/activation	soleus_l/activation	tib_post_l/activation	flex_dig_l/activation	flex_hal_l/activation	tib_ant_l/activation	per_brev_l/activation	per_long_l/activation	per_tert_l/activation	ext_dig_l/activation	ext_hal_l/activation	ercspn_l/activation	intobl_l/activation	extobl_l/activation	glut_med1_r/activation	glut_med2_r/activation	glut_med3_r/activation	glut_min1_r/activation	glut_min2_r/activation	glut_min3_r/activation	semimem_r/activation	semiten_r/activation	bifemlh_r/activation	bifemsh_r/activation	sar_r/activation	add_long_r/activation	add_brev_r/activation	add_mag1_r/activation	add_mag2_r/activation	add_mag3_r/activation	tfl_r/activation	pect_r/activation	grac_r/activation	glut_max1_r/activation	glut_max2_r/activation	glut_max3_r/activation	iliacus_r/activation	psoas_r/activation	quad_fem_r/activation	gem_r/activation	peri_r/activation	rect_fem_r/activation	vas_med_r/activation	vas_int_r/activation	vas_lat_r/activation	med_gas_r/activation	lat_gas_r/activation	soleus_r/activation	tib_post_r/activation	flex_dig_r/activation	flex_hal_r/activation	tib_ant_r/activation	per_brev_r/activation	per_long_r/activation	per_tert_r/activation	ext_dig_r/activation	ext_hal_r/activation	ercspn_r/activation	intobl_r/activation	extobl_r/activation	
          0.86247198	        -12.75782733	          0.78108337	          1.69639061	          2.32867435	          0.89663434	          0.00002323	         45.59719342	          3.51903301	         -2.05749200	          4.14994214	          1.71575135	          3.23331486	        -31.04018375	        -39.49535391	         13.54309626	         -8.16845173	          0.01464725	          7.72236476	          0.20916961	         -0.06634021	          0.32355509	         12.68009308	          2.51833375	         -2.62988590	          2.13005129	         -5.21524385	        -13.46895294	          4.29074216	          1.74606550	        -13.71447751	         18.82033516	         54.71899430	         31.13458484	         86.51662706	         86.51662706	          0.06579889	          0.13360933	          0.19527390	          0.06580089	          0.06579912	          0.06580348	          0.54376516	          0.06579343	          0.51730853	          0.05001082	          0.10617750	          0.07330964	          0.23625851	          0.44565662	          0.49254971	          0.43116088	          0.06003286	          0.05037977	          0.06054691	          0.42939035	          0.42230520	          0.53271751	          0.06323477	          0.06428513	          0.09241339	          0.09030735	          0.61802586	          0.05000505	          0.10223110	          0.10662111	          0.11014864	          0.05331963	          0.05015667	          0.05153341	          0.29068145	          0.05003309	          0.05003163	          0.41554769	          0.42335468	          0.21869293	          0.54449642	          0.73728130	          0.36537777	          0.19130193	          0.05000222	          0.05002081	          0.09725633	          0.05562090	          0.06010526	          0.12071727	          0.09579710	          0.10094491	          0.10007865	          0.05001333	          0.05001394	          0.06079520	          0.35605427	          0.80829428	          0.23528707	          0.06101289	          0.06114486	          0.05000952	          0.95176682	          0.55548463	          0.14039493	          0.05010112	          0.05001566	          0.05000530	          0.70013449	          0.91897376	          0.62109268	          0.60533592	          0.13687916	          0.50637064	          0.07411808	          0.07907209	          0.06840576	          0.12762820	          0.18806150	          0.08104513	          0.20096155	          0.21796674	          0.22753372	          0.16540572	          0.05764275	          0.08451532	          0.06794883	          0.89605421	          0.82371934	          0.13577409	          0.20373157	          0.05000211	
          0.86822179	        -12.72956058	          0.73711272	          1.65594771	          2.34494687	          0.89498664	          0.00001882	         45.33943952	          3.70233998	         -1.82839373	          4.60625627	          1.76644554	          3.14013411	        -31.17551223	        -41.33322257	         12.97410036	         -7.86826945	         -0.27878341	          8.18045122	          0.22937929	         -0.04350229	          0.34150081	         10.76125939	          2.60905291	         -2.69871427	          2.11542846	         -5.20145845	        -13.45598151	          4.26656267	          1.65532323	        -13.71915902	         18.85003777	         54.32536946	         31.07146744	         86.51662706	         86.51662706	          0.06004507	          0.12192599	          0.17819965	          0.06004803	          0.06004656	          0.06005082	          0.49621332	          0.06004371	          0.47207035	          0.05003127	          0.09689322	          0.08984314	          0.30315258	          0.49380094	          0.46687080	          0.41252445	          0.05479175	          0.05026345	          0.10090902	          0.41565596	          0.41590727	          0.50727605	          0.06895502	          0.05876661	          0.34390605	          0.08242056	          0.72384464	          0.05000191	          0.09333518	          0.10923660	          0.13278849	          0.05001543	          0.05001714	          0.05000319	          0.27503147	          0.05001087	          0.05001012	          0.43055086	          0.38634354	          0.19957472	          0.67070232	          0.78851704	          0.39194107	          0.17482403	          0.05000724	          0.05000479	          0.08875144	          0.05075918	          0.05485018	          0.11016144	          0.08742059	          0.09211863	          0.10804284	          0.06322474	          0.05480076	          0.07529535	          0.34469016	          0.74307839	          0.32397747	          0.05568408	          0.05580272	          0.05000846	          0.96512967	          0.63579776	          0.21747478	          0.05001334	          0.05000557	          0.05000369	          0.63890809	          0.83861592	          0.56679051	          0.61839082	          0.12491200	          0.55295279	          0.06763661	          0.07215735	          0.06242382	          0.11646742	          0.17161584	          0.07395787	          0.18338818	          0.19890917	          0.20763712	          0.20227187	          0.05260574	          0.07712492	          0.20323423	          0.92485720	          0.87256203	          0.14048838	          0.25367913	          0.05000350	
          0.87397161	        -12.69899416	          0.70246955	          1.60273074	          2.36120450	          0.89309815	          0.00000117	         45.05704524	          3.88768895	         -1.59230947	          5.18559412	          1.81797948	          3.03373566	        -31.78737303	        -43.25078058	         12.32781557	         -7.35299595	         -0.59286252	          8.56896296	          0.18816590	         -0.04323680	          0.34941465	          9.11242115	          2.70066587	         -2.76503986	          2.09047404	         -5.16431885	        -13.44988870	          4.27609388	          1.57835108	        -13.72309993	         18.86637423	         53.85176856	         30.99411643	         86.51662706	         86.51662706	          0.05479427	          0.11126392	          0.16261871	          0.05479732	          0.05479604	          0.05480018	          0.45281971	          0.05479414	          0.43078804	          0.05479258	          0.08842122	          0.08199506	          0.27664970	          0.62168979	          0.42605266	          0.37645852	          0.05000328	          0.07530557	          0.09209525	          0.41447434	          0.46097041	          0.52854611	          0.07209810	          0.07209793	          0.52571062	          0.33665937	          0.80035993	          0.07209680	          0.15235255	          0.16903313	          0.19037212	          0.05000039	          0.05000098	          0.05000014	          0.34553406	          0.05479794	          0.05011807	          0.49677329	          0.35255968	          0.18212313	          0.70700601	          0.78088393	          0.37606087	          0.17412007	          0.05000183	          0.05020596	          0.08099030	          0.05000717	          0.05006485	          0.10052853	          0.07977651	          0.08406431	          0.10955246	          0.05771433	          0.05008975	          0.06871507	          0.31457490	          0.67811029	          0.39383634	          0.05082657	          0.05093080	          0.05000204	          0.97479019	          0.63425212	          0.23738282	          0.05001429	          0.05000438	          0.05000184	          0.58303583	          0.76527985	          0.61167412	          0.56432169	          0.11399015	          0.60524716	          0.06172201	          0.06584732	          0.05696511	          0.10628266	          0.15660834	          0.06749040	          0.16735162	          0.18151822	          0.18948043	          0.21037284	          0.05001714	          0.07038087	          0.26739134	          0.94567848	          0.90786791	          0.13598775	          0.31578206	          0.05000116	
          0.87972142	        -12.66714364	          0.68407756	          1.53152123	          2.37744806	          0.89100224	         -0.00001832	         44.71546381	          4.05814682	         -1.30169210	          5.87444776	          1.85918697	          2.90966513	        -32.76953217	        -45.21084810	         11.69466047	         -6.66292650	         -0.92800892	          8.89755804	          0.11234511	         -0.04037214	          0.33432963	          7.69243300	          2.79253225	         -2.83465597	          2.05498019	         -5.10782070	        -13.45322757	          4.31961366	          1.51744149	        -13.72339777	         18.86879699	         53.30069652	         30.90506276	         86.51662706	         86.51662706	          0.05000306	          0.10153496	          0.15444425	          0.05000598	          0.05000515	          0.05001105	          0.41322081	          0.05000337	          0.39311580	          0.05000150	          0.08068948	          0.07482906	          0.25247116	          0.61205518	          0.50788410	          0.41313143	          0.05479615	          0.06879517	          0.08404427	          0.44049301	          0.44258780	          0.49312171	          0.06579437	          0.06579458	          0.54890203	          0.30722020	          0.85567272	          0.06579426	          0.26693736	          0.27203068	          0.29486284	          0.07612145	          0.08182396	          0.07208785	          0.31532235	          0.05001367	          0.05016450	          0.45333067	          0.38519400	          0.17754160	          0.64518047	          0.71259646	          0.34317519	          0.15889365	          0.05000016	          0.05170420	          0.07390786	          0.05002984	          0.07211505	          0.09173800	          0.07280083	          0.07671414	          0.10674808	          0.08487569	          0.15602203	          0.06270741	          0.28706882	          0.62128696	          0.56180073	          0.14997892	          0.09481517	          0.05478334	          0.98177405	          0.59072817	          0.30323900	          0.06576019	          0.06575391	          0.06580707	          0.53204956	          0.69835656	          0.55818658	          0.51497414	          0.10402241	          0.63853328	          0.05632489	          0.06008916	          0.05478900	          0.09698856	          0.14291323	          0.06158858	          0.15271735	          0.16564787	          0.17291148	          0.20304081	          0.05000584	          0.06422690	          0.26903112	          0.96072887	          0.93338437	          0.15302588	          0.31107152	          0.05000115	
